<svg xmlns="http://www.w3.org/2000/svg" viewBox="0 11.25 46.25 32.29999923706055" data-asc="0.859" width="46.25" height="32.29999923706055"><defs/><g fill="#000000"><g transform="translate(0, 0)"><path d="M0 42.95L0 11.80L10.10 11.80Q13.95 11.80 16.43 12.95Q18.90 14.10 20.10 16.18Q21.30 18.25 21.30 21Q21.30 22.75 20.60 24.43Q19.90 26.10 18.63 27.48Q17.35 28.85 15.60 29.55L22.15 42.95L15.55 42.95L9.40 30.30L6.45 30.30L6.45 42.95L0 42.95M6.45 25.05L10.45 25.05Q12.55 25.05 13.68 24.03Q14.80 23 14.80 21.20Q14.80 20.10 14.30 19.20Q13.80 18.30 12.85 17.75Q11.90 17.20 10.45 17.20L6.45 17.20L6.45 25.05ZM35 43.55Q31.85 43.55 29.02 42.65Q26.20 41.75 24.40 39.85L27.45 34.70L27.70 34.30L28.20 34.60Q28.30 34.95 28.45 35.33Q28.60 35.70 29.25 36.25Q30.45 37.10 31.92 37.68Q33.40 38.25 35.05 38.30Q36.15 38.30 37.05 38.10Q37.95 37.90 38.60 37.48Q39.25 37.05 39.60 36.35Q39.95 35.65 39.95 34.70Q39.95 34.20 39.83 33.68Q39.70 33.15 39.38 32.65Q39.05 32.15 38.38 31.63Q37.70 31.10 36.70 30.50Q35.70 29.90 34.20 29.25Q30.95 27.75 29.07 26.33Q27.20 24.90 26.40 23.23Q25.60 21.55 25.60 19.35Q25.60 17.05 26.93 15.23Q28.25 13.40 30.55 12.33Q32.85 11.25 35.70 11.25Q37.75 11.25 39.48 11.70Q41.20 12.15 42.70 13.05Q44.20 13.95 45.45 15.30L41.65 19.50L41.35 19.85L40.95 19.50Q40.90 19.10 40.80 18.73Q40.70 18.35 40.15 17.75Q39.25 16.95 38.25 16.68Q37.25 16.40 35.95 16.40Q35 16.40 34.25 16.63Q33.50 16.85 32.95 17.23Q32.40 17.60 32.13 18.10Q31.85 18.60 31.85 19.15Q31.85 19.65 31.95 20.10Q32.05 20.55 32.40 21Q32.75 21.45 33.42 21.93Q34.10 22.40 35.17 23Q36.25 23.60 37.90 24.35Q40.25 25.50 41.88 26.58Q43.50 27.65 44.48 28.78Q45.45 29.90 45.85 31.28Q46.25 32.65 46.25 34.35Q46.25 36.70 45.08 38.78Q43.90 40.85 41.40 42.20Q38.90 43.55 35 43.55L35 43.55Z"/></g></g></svg>